PathFileType	3	(X/Y/Z)	D:\MSKbioDyn\WearableRobot\20250106\S011\S011_static\S011_walking01.trc
DataRate	CameraRate	NumFrames	NumMarkers	Units	OrigDataRate	OrigDataStartFrame	OrigNumFrames
200.0	200.0	9	39	mm	200.0	467	1867	
Frame#	Time	LFHD			RFHD			LBHD			RBHD			C7			T10			CLAV			STRN			RBAK			LSHO			LUPA			LELB			LFRM			LWRA			LWRB			LFIN			RSHO			RUPA			RELB			RFRM			RWRA			RWRB			RFIN			LASI			RASI			LPSI			RPSI			LTHI			LKNE			LTIB			LANK			LHEE			LTOE			RTHI			RKNE			RTIB			RANK			RHEE			RTOE			
		X1	Y1	Z1	X2	Y2	Z2	X3	Y3	Z3	X4	Y4	Z4	X5	Y5	Z5	X6	Y6	Z6	X7	Y7	Z7	X8	Y8	Z8	X9	Y9	Z9	X10	Y10	Z10	X11	Y11	Z11	X12	Y12	Z12	X13	Y13	Z13	X14	Y14	Z14	X15	Y15	Z15	X16	Y16	Z16	X17	Y17	Z17	X18	Y18	Z18	X19	Y19	Z19	X20	Y20	Z20	X21	Y21	Z21	X22	Y22	Z22	X23	Y23	Z23	X24	Y24	Z24	X25	Y25	Z25	X26	Y26	Z26	X27	Y27	Z27	X28	Y28	Z28	X29	Y29	Z29	X30	Y30	Z30	X31	Y31	Z31	X32	Y32	Z32	X33	Y33	Z33	X34	Y34	Z34	X35	Y35	Z35	X36	Y36	Z36	X37	Y37	Z37	X38	Y38	Z38	X39	Y39	Z39	
467	2.325	220.19145	1661.0724	-292.72531	206.55928	1650.9155	-160.86958	104.61565	1587.5697	-303.42633	95.282745	1570.7664	-167.10448	58.927097	1455.3542	-238.79565	16.803791	1148.7554	-229.49361	188.78201	1375.941	-245.83186	224.55507	1177.1635	-253.47935	-2.163013	1267.8453	-174.82515	112.64761	1406.7708	-419.48965	93.783203	1211.933	-499.21143	149.38274	1060.8096	-510.07681	254.29935	996.47375	-520.32562	342.94781	919.77844	-459.08368	315.99728	898.93097	-518.53308	383.24106	858.88293	-515.03345	120.36481	1394.3611	-64.146767	65.556938	1214.3812	-3.2197587	30.186102	1049.6566	-7.2552462	58.245586	927.53198	24.073219	83.896255	815.97552	-29.379478	36.369923	819.8197	25.150833	68.129349	740.94647	34.237003	203.35228	931.46271	-376.54855	223.0761	954.08252	-131.90038	9.035779	945.92029	-275.04599	14.596681	944.5976	-202.5388	155.45169	721.69092	-435.39267	170.95598	472.11053	-426.9429	54.603016	396.44064	-426.63608	-138.00734	235.63795	-372.87143	-215.44835	264.94916	-298.03186	-94.353226	95.068169	-372.18381	209.60999	742.73956	-79.118103	213.41669	483.27347	-124.15749	170.01999	307.89001	-111.06589	159.01414	83.350319	-168.87328	80.903183	35.877689	-219.94537	308.54312	57.791054	-210.41002
468	2.33	220.0943	1661.693	-292.62329	206.44193	1651.5068	-160.80737	104.33727	1588.23	-303.41956	95.157639	1571.4155	-167.03105	58.819134	1456.0227	-238.52948	16.426292	1149.4911	-228.76048	188.57816	1376.6118	-245.8334	224.20906	1177.7963	-253.45999	-2.2634726	1268.6838	-174.1871	112.08956	1407.2812	-419.38217	91.809753	1212.4393	-498.87601	146.07436	1060.8518	-509.56284	249.79129	994.68036	-520.28815	337.38135	916.24829	-459.48068	309.67114	896.12708	-518.92145	376.02423	854.74396	-516.03668	120.66154	1395.1941	-63.954636	67.287201	1214.9384	-2.5923166	33.207729	1049.7332	-6.4097071	62.85183	927.92474	24.644871	88.420654	816.73022	-29.147709	42.244812	820.03894	25.80871	75.234261	741.71912	34.938782	202.87122	932.4895	-376.59576	222.45549	954.1958	-131.80954	8.478982	946.55219	-274.82169	13.934773	945.29846	-202.36102	156.41887	722.97601	-435.3049	175.68796	474.00113	-426.4079	59.940586	397.65561	-426.02142	-130.83237	234.59154	-373.11954	-209.21803	262.09494	-298.88745	-84.542839	94.830521	-372.80045	208.26938	742.6319	-79.382828	209.73621	483.12131	-124.10704	165.50307	308.12683	-110.9592	153.73415	83.291222	-168.74403	75.192032	35.952652	-219.91071	302.9603	57.42783	-210.58783
469	2.335	219.89825	1662.1025	-292.43018	206.40167	1652.1207	-160.73242	104.20773	1588.839	-303.32843	95.110245	1572.0414	-166.93561	58.667435	1456.7039	-238.22798	16.089415	1150.1127	-228.06592	188.39105	1377.2241	-245.82452	223.87497	1178.4386	-253.30496	-2.3335383	1269.4467	-173.39619	111.52203	1407.8107	-419.20877	89.735825	1212.6932	-498.30676	142.69086	1060.6959	-508.98373	245.07645	992.8606	-520.46704	331.51508	912.76025	-460.14911	303.32553	893.2005	-519.38599	368.96869	850.65411	-516.59576	120.9342	1395.9846	-63.80336	68.985298	1215.5386	-1.9638873	36.196266	1049.8932	-5.5977039	67.552917	928.3219	25.198923	94.702583	817.39441	-28.539042	48.301826	820.16803	26.57659	82.453224	742.50208	35.652855	202.2247	933.41046	-376.54263	221.70412	954.2876	-131.71696	7.848691	947.28967	-274.73575	13.270062	945.979	-202.20914	158.1433	724.58862	-435.27234	180.21593	475.87747	-426.00333	65.26622	398.82233	-425.45456	-123.34696	233.2401	-373.38812	-202.75726	259.11502	-299.5694	-74.456444	94.515373	-373.31964	206.75386	742.53723	-79.695496	206.06874	482.79956	-123.88926	160.75565	308.11563	-111.03966	148.24376	83.260567	-168.87177	69.68779	36.290325	-219.82773	297.42868	57.043362	-210.6288
470	2.34	219.84856	1662.8086	-292.56555	206.30836	1652.7363	-160.6954	104.09344	1589.4111	-303.2738	95.00309	1572.6096	-166.8528	58.5937	1457.2925	-237.98141	15.655428	1150.8524	-227.52571	188.20952	1377.8141	-245.78641	223.59247	1179.0696	-253.23048	-2.4060497	1270.2223	-172.65533	110.96354	1408.3044	-419.10666	87.810158	1213.0846	-497.8186	139.39494	1060.7734	-508.46875	240.41124	991.13251	-520.52618	325.61105	909.23883	-460.55359	296.7825	890.33624	-519.79602	361.46738	846.4834	-517.50879	121.2617	1396.8248	-63.714901	70.512611	1216.0704	-1.3709842	39.316879	1049.9852	-4.7534957	72.24086	928.78571	25.792446	101.18657	818.29187	-28.195835	54.325825	820.49585	27.071972	89.634033	743.3548	36.239849	201.49577	934.30151	-376.48495	220.94572	954.37964	-131.63025	7.2976856	947.86652	-274.5932	12.568758	946.68835	-202.13637	156.73878	726.34949	-434.25848	184.70245	477.64001	-425.46777	70.531784	399.86865	-424.92621	-115.78008	231.70456	-373.74786	-196.17726	255.63669	-300.43127	-63.84837	94.03656	-373.93442	205.15668	742.34772	-79.701004	202.33029	482.56836	-123.84108	156.01299	308.17679	-111.13784	142.75385	83.369011	-168.93201	64.045227	36.402508	-219.76794	291.91861	56.625984	-210.67639
471	2.345	219.73698	1663.3151	-292.53561	206.20988	1653.2054	-160.70613	103.95148	1589.9165	-303.21274	94.917213	1573.1559	-166.8221	58.504623	1457.8898	-237.71448	15.33417	1151.451	-226.71378	188.04631	1378.3717	-245.79324	223.20169	1179.6215	-253.19931	-2.4538267	1271.0072	-171.90625	110.41033	1408.7408	-418.99829	85.784752	1213.4033	-497.3027	136.01561	1060.7698	-507.84052	235.80217	989.48492	-520.30371	319.59006	905.89148	-461.10089	290.12872	887.55865	-520.27808	354.00641	842.39673	-518.08765	121.55947	1397.6071	-63.548641	72.482231	1216.7203	-0.81635928	42.417057	1050.1222	-3.957509	77.041031	929.24921	26.291256	107.10233	819.27216	-27.752193	60.481152	820.81219	27.682869	97.017921	744.28564	36.900364	200.63591	935.18304	-376.3714	220.12997	954.41675	-131.47192	6.6455116	948.60712	-274.64478	11.84235	947.3067	-202.08632	157.68153	727.85266	-434.58902	189.20576	479.55023	-425.06488	75.856644	400.80093	-424.41574	-108.00742	229.87106	-374.03909	-189.58946	251.95819	-301.28809	-53.287563	93.361389	-373.80627	203.48328	742.21832	-79.9086	198.71103	482.35916	-123.82815	151.17349	308.2164	-111.11446	137.57846	83.251648	-169.26488	58.346119	36.299465	-219.77164	286.37613	56.227131	-210.77405
472	2.35	219.52133	1663.6852	-292.40945	206.13071	1653.7108	-160.6936	103.86472	1590.4247	-303.16376	94.811356	1573.6754	-166.78659	58.34462	1458.5084	-237.38568	14.932209	1152.0208	-226.26849	187.8112	1378.9388	-245.76851	222.91243	1180.1263	-253.10413	-2.5284452	1271.7301	-171.22717	109.88596	1409.1636	-418.81653	83.752815	1213.7581	-496.77686	132.57056	1060.7908	-507.40384	231.03395	987.7561	-520.2688	313.44415	902.43518	-461.6123	283.17725	884.71313	-520.31079	346.38129	838.39087	-518.82294	121.86229	1398.3921	-63.43568	74.176796	1217.333	-0.28880027	45.583118	1050.2706	-3.1873395	81.839333	929.74841	26.823402	112.08884	820.04773	-27.649153	66.795341	821.1192	28.282505	104.3385	745.22565	37.59359	200.101	936.04388	-376.23792	219.29562	954.44373	-131.30301	6.0406632	949.10632	-274.58569	11.079777	947.88202	-202.10497	158.77147	729.52612	-434.78894	193.6368	481.56021	-424.54749	81.136292	401.5239	-423.95184	-100.14503	227.72163	-374.31622	-182.85931	247.88326	-301.896	-42.275772	92.712448	-373.93692	201.55997	741.95612	-80.057816	195.04161	482.09726	-123.8531	146.38455	308.37302	-111.19717	131.89339	83.110008	-169.04468	52.768391	36.620449	-219.70796	280.86044	55.687866	-210.87665
473	2.355	219.47957	1664.2965	-292.55606	205.9904	1654.2358	-160.72484	103.75706	1590.9006	-303.12897	94.750633	1574.1978	-166.71327	58.250626	1459.0568	-237.1205	14.545549	1152.8579	-225.77466	187.6198	1379.4476	-245.76477	222.56598	1180.6248	-253.02106	-2.6257057	1272.4875	-170.46883	109.30768	1409.5637	-418.72531	81.790451	1214.061	-496.12601	129.0611	1060.8052	-506.90628	226.03682	986.0968	-520.48621	307.11047	899.08893	-462.16031	276.49448	882.07898	-521.07147	338.53702	834.45532	-519.63031	122.14385	1399.1066	-63.39492	75.89415	1217.9347	0.32589686	48.698273	1050.3673	-2.4366279	86.703468	930.31244	27.30164	119.00837	821.04425	-27.262978	73.071342	821.48285	28.76775	111.72536	746.17261	38.061134	200.1953	936.75763	-375.66953	218.33392	954.46765	-131.07619	5.3268156	949.82587	-274.75003	10.284904	948.45508	-202.19441	160.49007	731.39075	-434.6503	197.89305	483.39435	-424.0925	86.421242	402.15759	-423.46683	-92.2603	225.41974	-374.66983	-175.87996	243.21342	-303.16425	-30.967871	92.087036	-374.05353	199.50952	741.60339	-80.047958	191.40749	481.73807	-123.74719	141.19392	308.46503	-111.08857	126.39342	83.130089	-169.22697	47.25771	36.445679	-219.80965	275.3345	55.2644	-210.98003
474	2.36	219.35687	1664.7438	-292.60989	205.89003	1654.7592	-160.72598	103.79633	1591.3088	-302.98135	94.648422	1574.6682	-166.7113	58.135586	1459.5717	-236.862	14.137342	1153.4949	-225.15222	187.43217	1379.9557	-245.82237	222.14401	1181.054	-253.02536	-2.7297814	1273.1631	-169.70934	108.75508	1409.9236	-418.60379	79.713631	1214.3168	-495.61691	125.59043	1060.7889	-506.32639	221.17865	984.47589	-520.31714	300.70679	895.71112	-462.70236	269.41107	879.38422	-521.41602	330.59521	830.53778	-520.3949	122.4586	1399.8219	-63.249969	77.667381	1218.5167	0.96178007	51.849731	1050.4963	-1.7031205	91.564598	930.81506	27.767984	125.08862	822.18011	-26.83901	79.361237	821.83484	29.229904	119.2834	747.17249	38.625439	199.39604	937.38971	-375.56924	217.45575	954.47211	-130.78326	4.6972303	950.03979	-274.62119	9.3858948	949.01166	-202.35179	161.59273	732.86572	-434.58896	202.13786	485.48709	-423.72552	91.68309	402.58081	-423.04016	-84.279861	222.85966	-374.94772	-168.91982	238.34999	-304.16339	-19.628883	91.233002	-374.07803	197.40257	741.44598	-80.020088	187.87022	481.54147	-123.66031	136.42006	308.62204	-111.31368	121.11742	83.018799	-169.59792	41.760868	36.826374	-219.76239	269.8338	54.73772	-211.05777
475	2.365	219.20195	1665.1738	-292.65359	205.76016	1655.2122	-160.78577	103.46125	1591.7681	-303.13934	94.531006	1575.1216	-166.71645	58.028858	1460.0638	-236.62917	13.721973	1153.986	-224.61984	187.23146	1380.3743	-245.84572	221.85617	1181.4392	-252.9931	-2.8435817	1273.9065	-169.01247	108.20237	1410.2836	-418.49918	77.691277	1214.5887	-495.04102	122.0812	1060.7928	-505.88531	216.17097	982.80316	-520.35864	294.09402	892.26385	-463.14905	262.35519	876.80377	-521.82245	322.50818	826.70795	-521.14075	122.76933	1400.5426	-63.151031	79.312538	1219.1173	1.4955937	55.022655	1050.6262	-0.93782401	96.453819	931.41235	28.277672	131.20035	823.34131	-26.575991	85.714447	822.21069	29.801739	126.70375	748.14917	38.788269	198.85887	938.01538	-375.29129	216.51085	954.50348	-130.36433	3.9295588	950.80524	-275.04037	8.5481663	949.46393	-202.58505	162.84515	734.27789	-434.72565	206.35161	487.29352	-423.10333	96.985008	402.89951	-422.66037	-76.129265	220.125	-375.2543	-161.839	233.29552	-305.15851	-7.5572472	90.534004	-374.52496	195.69511	741.32922	-79.558319	184.22069	481.26074	-123.85851	131.85324	308.60028	-111.60436	115.50131	83.06147	-169.64397	36.088844	36.910057	-219.67841	264.33087	54.276131	-211.08498
